<!-- icon666.com - MILLIONS vector ICONS FREE --><svg id="Layer_1" enable-background="new 0 0 100 100" viewBox="0 0 100 100" xmlns="http://www.w3.org/2000/svg"><g><path d="m68.9 21.1c2.2 0 4.4.9 6 2.5s2.6 3.7 2.6 6c.1.9.7 1.6 1.6 1.7.8 0 1.5-.7 1.5-1.5-.1-4.6 3.4-8.4 8-8.6h.3c.8 0 1.5-.7 1.5-1.5s-.7-1.5-1.5-1.5h-.1c-2.1 0-4.2-.9-5.7-2.4-1.4-1.5-2.3-3.4-2.4-5.5 0-.1 0-.2 0-.4 0-.1 0-.3-.1-.4-.1-.7-.7-1.2-1.5-1.3-.8 0-1.5.7-1.5 1.5v.5c-.3 4.5-4.1 7.9-8.6 7.8h-.2c-.8 0-1.5.7-1.5 1.5.1.9.7 1.6 1.6 1.6zm10.3-5.6c.5.9 1.1 1.7 1.8 2.4s1.5 1.3 2.3 1.8c-1.8 1.1-3.3 2.6-4.3 4.5-.5-1-1.2-1.9-2-2.6-.7-.7-1.5-1.2-2.3-1.7 1.8-1.1 3.4-2.6 4.5-4.4z" fill="#000000" style="fill: rgb(223, 144, 212);"></path><path d="m55.3 64.8c-9.4-.3-16.7-8.2-16.4-17.6s8.2-16.7 17.6-16.4 16.7 8.2 16.4 17.6c0 .8.6 1.5 1.4 1.5.8 0 1.5-.6 1.5-1.4.4-11-8.3-20.3-19.3-20.7s-20.3 8.3-20.7 19.3 8.3 20.3 19.3 20.7c.8 0 1.5-.6 1.5-1.5.2-.9-.5-1.5-1.3-1.5z" fill="#000000" style="fill: rgb(223, 144, 212);"></path><path d="m25.9 29.8c5.5 0 10-4.5 10-10s-4.5-10-10-10-10 4.5-10 10 4.4 10 10 10zm0-17c3.9 0 7 3.1 7 7s-3.1 7-7 7-7-3.1-7-7 3.1-7 7-7z" fill="#000000" style="fill: rgb(223, 144, 212);"></path><path d="m76.9 53.8c-9.1-.3-16.8 6.8-17.1 15.9s6.8 16.8 15.9 17.1h.6c9.1.2 16.6-7.1 16.8-16.2.2-9.2-7.1-16.7-16.2-16.8zm8.7 26.3c-5.5 5.1-14 4.8-19.1-.6s-4.8-14 .6-19.1c2.5-2.3 5.8-3.6 9.2-3.6h.5c7.5.3 13.3 6.5 13 14 0 3.5-1.6 6.9-4.2 9.3z" fill="#000000" style="fill: rgb(223, 144, 212);"></path><path d="m19.9 44.8c-7.2 0-13 5.8-13 13s5.8 13 13 13 13-5.8 13-13-5.9-13-13-13zm0 23c-5.5 0-10-4.5-10-10s4.5-10 10-10 10 4.5 10 10-4.5 10-10 10z" fill="#000000" style="fill: rgb(223, 144, 212);"></path><path d="m48.4 81.2c-1.5 0-2.9-.6-4-1.6s-1.7-2.4-1.8-3.9c0-.1 0-.2 0-.3 0-.8-.7-1.5-1.5-1.6-.8 0-1.5.7-1.5 1.5v.4c-.1 3.3-3.2 5.4-6.1 5.5h-.2c-.8 0-1.5.7-1.5 1.5 0 .8.7 1.5 1.5 1.5 1.6 0 3.1.6 4.2 1.8 1.2 1.1 1.8 2.6 1.9 4.2 0 .9.7 1.6 1.6 1.6.8 0 1.5-.7 1.5-1.5-.1-3.2 2.4-5.9 5.7-6.1h.2c.8 0 1.5-.7 1.5-1.5s-.7-1.5-1.5-1.5zm-7.5 4.1c-.4-.6-.8-1.1-1.3-1.5-.4-.4-.8-.7-1.3-1 1-.6 1.9-1.5 2.6-2.5.3.5.7 1 1.2 1.5.4.4.8.7 1.2 1-.8.6-1.7 1.5-2.4 2.5z" fill="#000000" style="fill: rgb(223, 144, 212);"></path><path d="m56.4 34.8c-6.7-.2-12.3 5.3-12.6 12.4 0 .8.6 1.5 1.4 1.6.8 0 1.5-.6 1.5-1.5.2-5.4 4.4-9.7 9.5-9.5.8 0 1.5-.6 1.5-1.4.2-.9-.5-1.6-1.3-1.6z" fill="#000000" style="fill: rgb(223, 144, 212);"></path><path d="m75.9 59.3c-5.2 0-9.5 4.2-9.5 9.4 0 .8.6 1.5 1.4 1.5.8 0 1.5-.6 1.5-1.5 0-3.6 2.9-6.5 6.5-6.5.8 0 1.5-.6 1.5-1.4 0 0 0 0 0-.1.1-.7-.6-1.4-1.4-1.4z" fill="#000000" style="fill: rgb(223, 144, 212);"></path><path d="m18.4 50.3c-3.6 0-6.5 3.4-6.5 7.5 0 .8.7 1.5 1.5 1.5s1.5-.7 1.5-1.5c0-2.5 1.6-4.5 3.5-4.5.8 0 1.5-.7 1.5-1.5s-.7-1.5-1.5-1.5z" fill="#000000" style="fill: rgb(223, 144, 212);"></path></g></svg>